<svg xmlns="http://www.w3.org/2000/svg" viewBox="0 0 512 512" fill="none">
  <rect width="512" height="512" rx="108" fill="#faf7f2"/>
  <circle cx="256" cy="268" r="168" fill="#fce8e4"/>
  <ellipse cx="256" cy="292" rx="118" ry="88" fill="#f0c96e"/>
  <path
    d="M138 268c0-66 53-118 118-118s118 52 118 118"
    fill="#e8b84a"
  />
  <path
    d="M156 262c28-38 62-58 100-58s72 20 100 58"
    stroke="#d4a853"
    stroke-width="6"
    stroke-linecap="round"
    opacity="0.55"
  />
  <path
    d="M196 248c16-18 36-28 60-28s44 10 60 28"
    stroke="#d4a853"
    stroke-width="5"
    stroke-linecap="round"
    opacity="0.4"
  />
  <path
    d="M214 198c12-22 28-34 42-34s30 12 42 34"
    stroke="#b91c3c"
    stroke-width="7"
    stroke-linecap="round"
    opacity="0.35"
  />
  <path
    d="M228 176c6-14 16-22 28-22s22 8 28 22"
    stroke="#b91c3c"
    stroke-width="6"
    stroke-linecap="round"
    opacity="0.45"
  />
  <path
    d="M332 148l44-52M348 132l28 68"
    stroke="#b91c3c"
    stroke-width="14"
    stroke-linecap="round"
  />
  <path
    d="M368 116l52 44M352 132l68 28"
    stroke="#d4a853"
    stroke-width="10"
    stroke-linecap="round"
    opacity="0.9"
  />
</svg>
